HIERARCHY
ROOT root
{
	OFFSET 0.000000 0.000000 0.000000
	CHANNELS 6 Xposition Yposition Zposition Zrotation Yrotation Xrotation
	JOINT lhip
	{
		OFFSET 0.058581 -0.082280 -0.017664
		CHANNELS 3 Zrotation Yrotation Xrotation
		JOINT lknee
		{
			OFFSET 0.043451 -0.386469 0.008037
			CHANNELS 3 Zrotation Yrotation Xrotation
			JOINT lankle
			{
				OFFSET -0.014790 -0.426874 -0.037428
				CHANNELS 3 Zrotation Yrotation Xrotation
				JOINT ltoe
				{
					OFFSET 0.041054 -0.060286 0.122042
					CHANNELS 3 Zrotation Yrotation Xrotation
					End Site
					{
						OFFSET 0.000000 0.000000 0.000000
					}
				}
			}
		}
	}
	JOINT rhip
	{
		OFFSET -0.060310 -0.090513 -0.013543
		CHANNELS 3 Zrotation Yrotation Xrotation
		JOINT rknee
		{
			OFFSET -0.043257 -0.383688 -0.004843
			CHANNELS 3 Zrotation Yrotation Xrotation
			JOINT rankle
			{
				OFFSET 0.019056 -0.420046 -0.034562
				CHANNELS 3 Zrotation Yrotation Xrotation
				JOINT rtoe
				{
					OFFSET -0.034840 -0.062106 0.130323
					CHANNELS 3 Zrotation Yrotation Xrotation
					End Site
					{
						OFFSET 0.000000 0.000000 0.000000
					}
				}
			}
		}
	}
	JOINT lowerback
	{
		OFFSET 0.004439 0.124404 -0.038385
		CHANNELS 3 Zrotation Yrotation Xrotation
		JOINT upperback
		{
			OFFSET 0.004488 0.137956 0.026820
			CHANNELS 3 Zrotation Yrotation Xrotation
			JOINT chest
			{
				OFFSET -0.002265 0.056032 0.002855
				CHANNELS 3 Zrotation Yrotation Xrotation
				JOINT lowerneck
				{
					OFFSET -0.013390 0.211636 -0.033468
					CHANNELS 3 Zrotation Yrotation Xrotation
					JOINT upperneck
					{
						OFFSET 0.010113 0.088937 0.050410
						CHANNELS 3 Zrotation Yrotation Xrotation
						End Site
						{
							OFFSET 0.000000 0.000000 0.000000
						}
					}
				}
				JOINT lclavicle
				{
					OFFSET 0.071702 0.114000 -0.018898
					CHANNELS 3 Zrotation Yrotation Xrotation
					JOINT lshoulder
					{
						OFFSET 0.122921 0.045205 -0.019046
						CHANNELS 3 Zrotation Yrotation Xrotation
						JOINT lelbow
						{
							OFFSET 0.255332 -0.015649 -0.022946
							CHANNELS 3 Zrotation Yrotation Xrotation
							JOINT lwrist
							{
								OFFSET 0.265709 0.012698 -0.007375
								CHANNELS 3 Zrotation Yrotation Xrotation
								End Site
								{
									OFFSET 0.000000 0.000000 0.000000
								}
							}
						}
					}
				}
				JOINT rclavicle
				{
					OFFSET -0.082954 0.112472 -0.023707
					CHANNELS 3 Zrotation Yrotation Xrotation
					JOINT rshoulder
					{
						OFFSET -0.113228 0.046853 -0.008472
						CHANNELS 3 Zrotation Yrotation Xrotation
						JOINT relbow
						{
							OFFSET -0.260127 -0.014369 -0.031269
							CHANNELS 3 Zrotation Yrotation Xrotation
							JOINT rwrist
							{
								OFFSET -0.269108 0.006794 -0.006027
								CHANNELS 3 Zrotation Yrotation Xrotation
								End Site
								{
									OFFSET 0.000000 0.000000 0.000000
								}
							}
						}
					}
				}
			}
		}
	}
}
MOTION
Frames: 10
Frame Time: 0.033333
0.262238 1.404881 0.216316 -179.739889 3.352533 44.367474 17.684645 15.971941 -73.059941 -0.510639 25.981550 70.356582 -18.293356 5.171828 33.660837 0.000000 -0.000000 0.000000 -10.594755 -15.370186 -80.296625 -8.744220 -26.088914 90.594900 12.430442 1.429893 22.124547 0.000000 -0.000000 0.000000 2.466993 -0.158991 78.430664 0.514063 0.357829 -9.208050 5.713991 -0.181992 -2.450007 -4.093252 7.612424 -11.639535 6.899671 5.528641 -3.547009 -10.562533 -33.634618 -5.857769 -8.963893 -27.509933 3.100460 -22.144862 -58.269935 19.159334 8.524690 -39.276614 -16.679956 8.565091 38.483154 0.401393 -2.653600 32.831972 -2.149129 37.155521 48.955231 47.740713 -16.368616 39.584738 12.406704 
0.262191 1.404692 0.216334 -179.772940 3.354063 44.335692 17.787484 15.924070 -72.988876 -0.581880 26.011702 70.273577 -18.300533 5.203777 33.662651 0.000000 -0.000000 0.000000 -10.585217 -15.331570 -80.255890 -8.591034 -26.105126 90.489194 12.368509 1.293751 22.151383 0.000000 -0.000000 0.000000 2.442801 -0.115375 78.281749 0.579367 0.354484 -8.889437 5.712069 -0.152448 -2.488106 -4.142127 7.631474 -11.568266 6.839302 5.523022 -3.689371 -10.762589 -33.635045 -5.721902 -8.642130 -27.586743 3.161108 -21.831873 -58.309297 18.848735 8.716253 -39.260603 -16.885940 8.708760 38.544402 0.573190 -2.966550 32.791280 -2.278099 36.998634 48.991961 47.599190 -16.539073 39.566350 12.144134 
0.262197 1.404507 0.216361 -179.800217 3.359702 44.335576 17.857647 15.895754 -72.954304 -0.621581 26.029397 70.196322 -18.299647 5.223876 33.703706 0.000000 -0.000000 0.000000 -10.550637 -15.296355 -80.249071 -8.511973 -26.128000 90.405150 12.285892 1.164614 22.175832 0.000000 -0.000000 0.000000 2.414000 -0.086626 78.243601 0.609170 0.359493 -8.781856 5.712236 -0.128972 -2.534615 -4.179434 7.639188 -11.519410 6.843856 5.499724 -3.720847 -10.880304 -33.609873 -5.622995 -8.461725 -27.659748 3.197081 -21.633832 -58.324814 18.682601 8.883956 -39.259407 -17.067626 8.787150 38.556923 0.667525 -3.026629 32.770111 -2.307268 36.789863 49.047144 47.497451 -16.616886 39.545954 11.959767 
0.262224 1.404409 0.216371 -179.774853 3.405102 44.346170 17.890290 15.822240 -72.953618 -0.661147 26.035758 70.114933 -18.294948 5.235012 33.756355 0.000000 -0.000000 0.000000 -10.561179 -15.361850 -80.231923 -8.491990 -26.189942 90.370783 12.255616 1.037819 22.310929 0.000000 -0.000000 0.000000 2.425501 -0.084754 78.265633 0.687045 0.343308 -8.720656 5.678918 -0.131354 -2.604051 -4.253050 7.561396 -11.369040 6.788077 5.261320 -3.913496 -10.954619 -33.491545 -5.518536 -8.294567 -27.838669 3.288099 -21.485383 -58.321589 18.522708 9.118925 -39.246442 -17.380473 8.758391 38.443192 0.549304 -2.860540 32.889746 -2.171388 36.443020 49.103567 47.333361 -16.797005 39.492246 11.638331 
0.262287 1.404275 0.216511 -179.833678 3.430495 44.325865 17.907403 15.878294 -72.925285 -0.689335 25.989642 70.100808 -18.296432 5.229268 33.762447 0.000000 -0.000000 0.000000 -10.481005 -15.351231 -80.174157 -8.506704 -26.244549 90.334599 12.195245 0.968956 22.319548 0.000000 -0.000000 0.000000 2.408606 -0.087230 78.331540 0.668407 0.379179 -8.773759 5.675335 -0.105432 -2.552480 -4.300719 7.492208 -11.346654 6.757286 5.178316 -3.947059 -10.893885 -33.487766 -5.633389 -8.228228 -27.903008 3.360390 -21.814531 -58.213700 18.700214 9.164656 -39.175293 -17.484512 8.755635 38.451235 0.454008 -2.857342 32.888118 -2.131340 36.435911 49.086037 47.185968 -16.707919 39.510088 11.543350 
0.262284 1.404201 0.216586 -179.875733 3.436566 44.293146 17.873291 15.931764 -72.900464 -0.756537 25.899428 70.095427 -18.220322 5.226884 33.663448 0.000000 -0.000000 0.000000 -10.393644 -15.343877 -80.140491 -8.389378 -26.227005 90.268173 12.087386 0.861963 22.275939 0.000000 -0.000000 0.000000 2.377405 -0.055474 78.315855 0.695805 0.373893 -8.723071 5.694354 -0.078437 -2.474476 -4.468507 7.225846 -11.422261 6.680986 4.945412 -4.110809 -10.724171 -33.538104 -5.817615 -8.101684 -27.867551 3.554418 -22.679328 -58.165064 19.389259 9.610868 -38.978428 -17.591570 8.682700 38.532342 0.333796 -2.790325 32.716371 -2.054603 36.323565 49.213860 46.732607 -16.330549 39.409820 11.311431 
0.262268 1.404412 0.216622 -179.798630 3.378453 44.251091 17.748556 16.030286 -72.816640 -0.822394 25.975906 70.094509 -18.134685 5.204382 33.551502 0.000000 -0.000000 0.000000 -10.504521 -15.449975 -80.118134 -8.431983 -26.243280 90.368905 12.185337 0.846103 22.360538 0.000000 -0.000000 0.000000 2.350171 -0.009583 78.424777 0.739891 0.317036 -8.830470 5.697655 -0.140766 -2.402407 -4.619229 6.990904 -11.564306 6.566692 4.530074 -4.217906 -10.479361 -33.511542 -5.844112 -8.064364 -27.770845 3.608961 -23.716464 -58.325283 20.376575 9.947568 -38.938059 -17.545204 8.477481 38.447415 0.121505 -2.487786 32.528751 -1.862890 36.258221 49.547280 46.251071 -15.585410 39.222985 11.112276 
0.262247 1.404395 0.216766 -179.785567 3.348038 44.207699 17.707136 16.137612 -72.728735 -0.987127 25.988245 70.036202 -18.050048 5.398262 33.447744 0.000000 -0.000000 0.000000 -10.504411 -15.564435 -80.092694 -8.459421 -26.281338 90.416411 12.210033 0.707791 22.591915 0.000000 -0.000000 0.000000 2.263566 -0.006069 78.415273 0.769825 0.249569 -8.709830 5.706150 -0.138024 -2.423604 -4.865659 6.572037 -11.633577 6.669462 4.242865 -4.339952 -10.545389 -33.539811 -5.764586 -7.608826 -27.576349 3.634218 -25.189084 -58.471150 21.698359 9.818853 -38.838231 -17.645312 8.698334 38.487574 0.310852 -2.849052 32.301455 -2.143616 36.700068 49.575644 45.971079 -15.363812 39.028271 10.150952 
0.261910 1.404300 0.217028 179.952398 3.303747 44.234294 17.847791 16.480556 -72.655656 -0.929508 26.094531 70.079982 -18.075715 5.431716 33.450473 0.000000 -0.000000 0.000000 -10.283667 -15.575414 -80.294614 -8.510571 -26.263242 90.374385 12.374202 0.513803 23.919158 0.000000 -0.000000 0.000000 2.182715 -0.110823 78.485628 0.630817 0.346494 -8.755470 5.603467 -0.038344 -2.483680 -5.308875 5.965529 -11.805163 7.094808 3.844538 -4.394989 -10.648223 -33.552213 -5.755195 -7.306064 -27.424724 3.680294 -26.475122 -58.572087 22.663225 8.757778 -38.692045 -17.123739 8.938430 38.476444 0.555976 -2.920063 31.965185 -2.423820 36.757256 49.852928 45.140795 -14.583617 38.807530 9.611004 
0.261901 1.404574 0.217063 179.932047 3.274701 44.365546 17.788769 16.770808 -72.794212 -1.000181 26.208356 70.150966 -17.964271 5.358786 33.427317 0.000000 -0.000000 0.000000 -10.272388 -15.751847 -80.590607 -8.285244 -26.198279 90.194090 12.691005 0.279595 25.595237 0.000000 -0.000000 0.000000 2.047643 -0.183982 78.346417 0.649842 0.247784 -8.781912 5.520156 -0.131994 -2.298652 -5.631558 5.464646 -12.052552 7.130596 3.194920 -4.486111 -10.623917 -33.379749 -5.753321 -6.947295 -27.259069 3.710295 -27.648558 -58.695206 24.202907 7.636532 -38.456315 -16.405281 9.380613 38.361163 1.019075 -2.906008 31.860866 -2.727796 36.055003 50.388758 43.291458 -14.839880 38.015279 8.043407 
